<svg xmlns="http://www.w3.org/2000/svg" xmlns:xlink="http://www.w3.org/1999/xlink" width="432" height="97" viewBox="0 0 432 97">
  <defs>
    <clipPath id="clip-path">
      <path id="Бокс_" data-name="Бокс " d="M6,0H426a6,6,0,0,1,6,6V97a0,0,0,0,1,0,0H0a0,0,0,0,1,0,0V6A6,6,0,0,1,6,0Z" transform="translate(693 339)" fill="#1f232d"/>
    </clipPath>
  </defs>
  <g id="Clip" transform="translate(-693 -339)" clip-path="url(#clip-path)">
    <g id="Credit_card-rafiki_2_" data-name="Credit card-rafiki (2)" transform="translate(909.935 305.173)">
      <g id="freepik--Coins--inject-34">
        <circle id="Эллипс_1" data-name="Эллипс 1" cx="25.473" cy="25.473" r="25.473" transform="translate(15.065 107.247) rotate(-45)" fill="#36ab7e"/>
        <circle id="Эллипс_2" data-name="Эллипс 2" cx="25.473" cy="25.473" r="25.473" transform="translate(15.065 107.247) rotate(-45)" opacity="0.4"/>
        <circle id="Эллипс_3" data-name="Эллипс 3" cx="21.39" cy="21.39" r="21.39" transform="matrix(0.168, -0.986, 0.986, 0.168, 26.408, 124.736)" opacity="0.2"/>
        <circle id="Эллипс_4" data-name="Эллипс 4" cx="20.584" cy="20.584" r="20.584" transform="translate(30.693 126.954) rotate(-85.996)" fill="#36ab7e"/>
        <circle id="Эллипс_5" data-name="Эллипс 5" cx="20.584" cy="20.584" r="20.584" transform="translate(30.693 126.954) rotate(-85.996)" opacity="0.4"/>
        <path id="Контур_15" data-name="Контур 15" d="M59.547,105.286l1.34,5.808a1.651,1.651,0,0,1-.216,1.312,1.726,1.726,0,0,1-1.1.776l-5.108,1.18.941,4.087a1.632,1.632,0,0,1-.226,1.3,1.651,1.651,0,0,1-1.1.743,1.731,1.731,0,0,1-1.331-.207,1.637,1.637,0,0,1-.771-1.072l-.941-4.134-5.065,1.171a1.665,1.665,0,0,1-1.289-.216,1.646,1.646,0,0,1-.776-1.072,1.674,1.674,0,0,1,.216-1.3A1.646,1.646,0,0,1,45.2,112.9l11.852-2.733-.555-2.413L44.68,110.478a1.67,1.67,0,0,1-1.3-.2,1.646,1.646,0,0,1-.767-1.086L41.28,103.4a1.721,1.721,0,0,1,1.289-2.065l5.042-1.162-.941-4.092a1.67,1.67,0,0,1,.2-1.284,1.688,1.688,0,0,1,1.148-.79,1.651,1.651,0,0,1,1.284.216,1.679,1.679,0,0,1,.762,1.077L51,99.393l5.174-1.185a1.707,1.707,0,0,1,1.322.221,1.637,1.637,0,0,1,.781,1.058,1.783,1.783,0,0,1-1.322,2.112L45.1,104.331l.517,2.4,11.81-2.723a1.707,1.707,0,0,1,1.322.221,1.623,1.623,0,0,1,.795,1.058Z" fill="#36ab7e"/>
        <g id="Сгруппировать_24" data-name="Сгруппировать 24" opacity="0.7">
          <path id="Контур_16" data-name="Контур 16" d="M59.547,105.286l1.34,5.808a1.651,1.651,0,0,1-.216,1.312,1.726,1.726,0,0,1-1.1.776l-5.108,1.18.941,4.087a1.632,1.632,0,0,1-.226,1.3,1.651,1.651,0,0,1-1.1.743,1.731,1.731,0,0,1-1.331-.207,1.637,1.637,0,0,1-.771-1.072l-.941-4.134-5.065,1.171a1.665,1.665,0,0,1-1.289-.216,1.646,1.646,0,0,1-.776-1.072,1.674,1.674,0,0,1,.216-1.3A1.646,1.646,0,0,1,45.2,112.9l11.852-2.733-.555-2.413L44.68,110.478a1.67,1.67,0,0,1-1.3-.2,1.646,1.646,0,0,1-.767-1.086L41.28,103.4a1.721,1.721,0,0,1,1.289-2.065l5.042-1.162-.941-4.092a1.67,1.67,0,0,1,.2-1.284,1.688,1.688,0,0,1,1.148-.79,1.651,1.651,0,0,1,1.284.216,1.679,1.679,0,0,1,.762,1.077L51,99.393l5.174-1.185a1.707,1.707,0,0,1,1.322.221,1.637,1.637,0,0,1,.781,1.058,1.783,1.783,0,0,1-1.322,2.112L45.1,104.331l.517,2.4,11.81-2.723a1.707,1.707,0,0,1,1.322.221,1.623,1.623,0,0,1,.795,1.058Z" fill="#fff"/>
        </g>
        <circle id="Эллипс_6" data-name="Эллипс 6" cx="17.778" cy="17.778" r="17.778" transform="translate(66.813 77.618) rotate(-49.8)" fill="#36ab7e"/>
        <circle id="Эллипс_7" data-name="Эллипс 7" cx="17.778" cy="17.778" r="17.778" transform="translate(66.813 77.618) rotate(-49.8)" opacity="0.4"/>
        <circle id="Эллипс_8" data-name="Эллипс 8" cx="14.928" cy="14.928" r="14.928" transform="translate(70.85 77.494) rotate(-50.42)" opacity="0.2"/>
        <circle id="Эллипс_9" data-name="Эллипс 9" cx="14.331" cy="14.331" r="14.331" transform="translate(72.35 79.15) rotate(-52.61)" fill="#36ab7e"/>
        <circle id="Эллипс_10" data-name="Эллипс 10" cx="14.331" cy="14.331" r="14.331" transform="translate(72.35 79.15) rotate(-52.61)" opacity="0.4"/>
        <path id="Контур_17" data-name="Контур 17" d="M97.742,76.973l-1.011,4.035a1.134,1.134,0,0,1-.555.729,1.213,1.213,0,0,1-.941.136l-3.523-.889L91,83.806a1.138,1.138,0,0,1-.555.734,1.157,1.157,0,0,1-.9.136,1.209,1.209,0,0,1-.757-.55,1.157,1.157,0,0,1-.141-.912l.72-2.869-3.527-.861a1.162,1.162,0,0,1-.734-.546,1.143,1.143,0,0,1-.141-.908,1.157,1.157,0,0,1,.546-.743,1.171,1.171,0,0,1,.912-.132l8.231,2.065.423-1.674-8.207-2.06a1.143,1.143,0,0,1-.738-.541,1.124,1.124,0,0,1-.132-.912L87,70.012a1.195,1.195,0,0,1,1.458-.87l3.49.875.715-2.822a1.181,1.181,0,0,1,1.5-.879,1.124,1.124,0,0,1,.724.541,1.162,1.162,0,0,1,.136.908L94.3,70.586l3.574.9a1.19,1.19,0,0,1,.753.56,1.148,1.148,0,0,1,.151.9,1.213,1.213,0,0,1-.564.753,1.2,1.2,0,0,1-.941.141l-8.235-2.065-.414,1.665,8.2,2.055a1.19,1.19,0,0,1,.753.56,1.124,1.124,0,0,1,.16.917Z" fill="#36ab7e"/>
        <g id="Сгруппировать_25" data-name="Сгруппировать 25" opacity="0.7">
          <path id="Контур_18" data-name="Контур 18" d="M97.742,76.973l-1.011,4.035a1.134,1.134,0,0,1-.555.729,1.213,1.213,0,0,1-.941.136l-3.523-.889L91,83.806a1.138,1.138,0,0,1-.555.734,1.157,1.157,0,0,1-.9.136,1.209,1.209,0,0,1-.757-.55,1.157,1.157,0,0,1-.141-.912l.72-2.869-3.527-.861a1.162,1.162,0,0,1-.734-.546,1.143,1.143,0,0,1-.141-.908,1.157,1.157,0,0,1,.546-.743,1.171,1.171,0,0,1,.912-.132l8.231,2.065.423-1.674-8.207-2.06a1.143,1.143,0,0,1-.738-.541,1.124,1.124,0,0,1-.132-.912L87,70.012a1.195,1.195,0,0,1,1.458-.87l3.49.875.715-2.822a1.181,1.181,0,0,1,1.5-.879,1.124,1.124,0,0,1,.724.541,1.162,1.162,0,0,1,.136.908L94.3,70.586l3.574.9a1.19,1.19,0,0,1,.753.56,1.148,1.148,0,0,1,.151.9,1.213,1.213,0,0,1-.564.753,1.2,1.2,0,0,1-.941.141l-8.235-2.065-.414,1.665,8.2,2.055a1.19,1.19,0,0,1,.753.56,1.124,1.124,0,0,1,.16.917Z" fill="#fff"/>
        </g>
      </g>
      <g id="freepik--credit-card--inject-34">
        <rect id="Прямоугольник_1" data-name="Прямоугольник 1" width="0.47" height="5.31" transform="translate(48.095 182.94)" fill="#36ab7e"/>
        <rect id="Прямоугольник_2" data-name="Прямоугольник 2" width="0.47" height="5.31" transform="translate(48.095 182.94)" opacity="0.1"/>
        <rect id="Прямоугольник_3" data-name="Прямоугольник 3" width="0.47" height="7.276" transform="translate(186.595 140.875)" fill="#36ab7e"/>
        <rect id="Прямоугольник_4" data-name="Прямоугольник 4" width="0.47" height="3.946" transform="translate(186.595 151.965)" fill="#36ab7e"/>
        <rect id="Прямоугольник_5" data-name="Прямоугольник 5" width="0.47" height="7.276" transform="translate(186.595 140.875)" opacity="0.1"/>
        <rect id="Прямоугольник_6" data-name="Прямоугольник 6" width="0.47" height="3.946" transform="translate(186.595 151.965)" opacity="0.1"/>
        <rect id="Прямоугольник_7" data-name="Прямоугольник 7" width="135.683" height="85.293" rx="7.078" transform="translate(49.741 109.321)" fill="#36ab7e"/>
        <rect id="Прямоугольник_8" data-name="Прямоугольник 8" width="135.683" height="85.293" rx="7.078" transform="translate(49.741 109.321)" opacity="0.2"/>
        <circle id="Эллипс_11" data-name="Эллипс 11" cx="8.781" cy="8.781" r="8.781" transform="translate(154.679 121.46)" opacity="0.2"/>
        <circle id="Эллипс_12" data-name="Эллипс 12" cx="8.781" cy="8.781" r="8.781" transform="translate(143.344 121.46)" fill="#36ab7e"/>
        <rect id="Прямоугольник_9" data-name="Прямоугольник 9" width="27.01" height="19.768" rx="3.048" transform="translate(62.924 139.022)" fill="#36ab7e"/>
        <rect id="Прямоугольник_10" data-name="Прямоугольник 10" width="27.01" height="19.768" rx="3.048" transform="translate(62.924 139.022)" fill="#fff" opacity="0.3"/>
        <rect id="Прямоугольник_11" data-name="Прямоугольник 11" width="40.593" height="4.313" rx="2.156" transform="translate(62.924 119.306)" fill="#36ab7e"/>
        <rect id="Прямоугольник_12" data-name="Прямоугольник 12" width="40.593" height="4.313" rx="2.156" transform="translate(62.924 119.306)" fill="#fff" opacity="0.3"/>
        <rect id="Прямоугольник_13" data-name="Прямоугольник 13" width="22.646" height="9.289" rx="3.165" transform="translate(62.924 168.6)" fill="#36ab7e"/>
        <rect id="Прямоугольник_14" data-name="Прямоугольник 14" width="22.646" height="9.289" rx="3.165" transform="translate(62.924 168.6)" fill="#fff" opacity="0.3"/>
        <rect id="Прямоугольник_15" data-name="Прямоугольник 15" width="22.646" height="9.289" rx="3.165" transform="translate(91.811 168.6)" fill="#36ab7e"/>
        <rect id="Прямоугольник_16" data-name="Прямоугольник 16" width="22.646" height="9.289" rx="3.165" transform="translate(91.811 168.6)" fill="#fff" opacity="0.3"/>
        <rect id="Прямоугольник_17" data-name="Прямоугольник 17" width="22.646" height="9.289" rx="3.165" transform="translate(120.703 168.6)" fill="#36ab7e"/>
        <rect id="Прямоугольник_18" data-name="Прямоугольник 18" width="22.646" height="9.289" rx="3.165" transform="translate(120.703 168.6)" fill="#fff" opacity="0.3"/>
        <rect id="Прямоугольник_19" data-name="Прямоугольник 19" width="22.646" height="9.289" rx="3.165" transform="translate(149.59 168.6)" fill="#36ab7e"/>
        <rect id="Прямоугольник_20" data-name="Прямоугольник 20" width="22.646" height="9.289" rx="3.165" transform="translate(149.59 168.6)" fill="#fff" opacity="0.3"/>
      </g>
      <g id="freepik--Character--inject-34">
        <path id="Контур_19" data-name="Контур 19" d="M137.8,78.459c-1.115,3.146-2.352,6.189-3.664,9.232a79.326,79.326,0,0,1-4.562,9q-.346.557-.72,1.115l-.183.277-.249.343c-.169.216-.329.4-.47.588a24.546,24.546,0,0,1-1.881,1.881c-1.256,1.162-2.535,2.215-3.828,3.255-2.6,2.06-5.249,3.988-8,5.818l-1.641-2.036,6.914-6.815c1.143-1.133,2.276-2.276,3.335-3.419.522-.569,1.03-1.152,1.449-1.688.1-.132.193-.263.273-.376l.1-.16.136-.245c.183-.325.376-.64.555-.974,1.439-2.7,2.709-5.644,3.932-8.626s2.4-5.987,3.527-8.969Z" fill="#e4897b"/>
        <path id="Контур_20" data-name="Контур 20" d="M139.125,76.192c1.068,3.123-5.206,12.308-5.206,12.308l-5.992-3.335a70.079,70.079,0,0,1,3.612-8.372C133.637,72.824,137.954,72.763,139.125,76.192Z" fill="#36ab7e"/>
        <path id="Контур_21" data-name="Контур 21" d="M139.125,76.192c1.068,3.123-5.206,12.308-5.206,12.308l-5.992-3.335a70.079,70.079,0,0,1,3.612-8.372C133.637,72.824,137.954,72.763,139.125,76.192Z" fill="#fff" opacity="0.7"/>
        <path id="Контур_22" data-name="Контур 22" d="M139.215,76.582c-1.345-.644-2.892-.1-4.524,2.474a27.934,27.934,0,0,0-3.17,8.108l2.4,1.331S139.713,80.011,139.215,76.582Z" fill="#36ab7e" opacity="0.31"/>
        <path id="Контур_23" data-name="Контур 23" d="M135.066,73.8s-4.477,10.53-1.251,30.138h18.648c.23-2.864-1.086-16.828,2.145-30.317a47.614,47.614,0,0,0-6.218-.79,69.563,69.563,0,0,0-7.925,0,35.954,35.954,0,0,0-5.4.969Z" fill="#36ab7e"/>
        <path id="Контур_24" data-name="Контур 24" d="M135.066,73.8s-4.477,10.53-1.251,30.138h18.648c.23-2.864-1.086-16.828,2.145-30.317a47.614,47.614,0,0,0-6.218-.79,69.563,69.563,0,0,0-7.925,0,35.954,35.954,0,0,0-5.4.969Z" fill="#fff" opacity="0.7"/>
        <path id="Контур_25" data-name="Контур 25" d="M159.067,187.484l-2.761,2.474-5.263-5.479L153.809,182Z" fill="#e4897b"/>
        <path id="Контур_26" data-name="Контур 26" d="M149.6,192.629h-3.485l-.452-8.071h3.485Z" fill="#e4897b"/>
        <path id="Контур_27" data-name="Контур 27" d="M151.048,184.478l2.709,2.827,2.765-2.479L153.813,182Z" fill="#ce6f64"/>
        <path id="Контур_28" data-name="Контур 28" d="M149.148,184.558h-3.485l.235,4.162h3.485Z" fill="#ce6f64"/>
        <path id="Контур_29" data-name="Контур 29" d="M133.815,103.941s-3.673,25.425-4.924,39.262c-1.006,11.1,23,44.21,23,44.21l4.642-4.369S139,153.362,140.353,141c1.307-11.97,5.738-37.075,5.738-37.075Z" fill="#36ab7e"/>
        <path id="Контур_30" data-name="Контур 30" d="M133.815,103.941s-3.673,25.425-4.924,39.262c-1.006,11.1,23,44.21,23,44.21l4.642-4.369S139,153.362,140.353,141c1.307-11.97,5.738-37.075,5.738-37.075Z" opacity="0.7"/>
        <path id="Контур_31" data-name="Контур 31" d="M140.353,141.016c.673-6.166,2.178-15.826,3.471-23.737-.677-1.326-2.577-4.012-2.577-4.012-1.7,5.884-5.4,28.064-.122,58.019,5.5,8.87,10.77,16.141,10.77,16.141l.72-11.438C147.53,166.423,139.417,149.562,140.353,141.016Z" opacity="0.2"/>
        <path id="Контур_32" data-name="Контур 32" d="M140.447,103.941s-.329,26.644.235,36.629c.616,10.93,3.72,47.15,3.72,47.15h6.387s-.193-35.335.183-46.153c.419-11.758,1.5-37.626,1.5-37.626Z" fill="#36ab7e"/>
        <path id="Контур_33" data-name="Контур 33" d="M140.447,103.941s-.329,26.644.235,36.629c.616,10.93,3.72,47.15,3.72,47.15h6.387s-.193-35.335.183-46.153c.419-11.758,1.5-37.626,1.5-37.626Z" opacity="0.7"/>
        <path id="Контур_34" data-name="Контур 34" d="M145.931,192.229h3.918a.249.249,0,0,1,.259.235l.193,3.1a.616.616,0,0,1-.611.621c-1.364-.024-2.018-.1-3.739-.1-1.058,0-5.564.113-7.027.113s-1.411-1.449-.8-1.58c2.78-.588,6.227-1.411,7.215-2.173a.983.983,0,0,1,.6-.212Z" fill="#263238"/>
        <path id="Контур_35" data-name="Контур 35" d="M155.544,188.965,158.9,186.7a.31.31,0,0,1,.386,0l2.568,2.591a.517.517,0,0,1-.122.785,35.472,35.472,0,0,0-4.915,4.271c-1.411,1.6-2.173,1.834-5.465,1.834-1.524,0-2.385-1.284-1.764-1.482,5.484-1.735,4.017-2.493,5.352-5.037a1.881,1.881,0,0,1,.6-.7Z" fill="#263238"/>
        <path id="Контур_36" data-name="Контур 36" d="M113.4,107.5l-3.636.127.762,2.85s3.8.339,4.139-.809Z" fill="#e4897b"/>
        <path id="Контур_37" data-name="Контур 37" d="M105.841,109.321l2.549,1.486,2.135-.334-.762-2.85Z" fill="#e4897b"/>
        <path id="Контур_38" data-name="Контур 38" d="M150.441,76.954c-.386,2.22.127,7.525,2.032,13.667a89.679,89.679,0,0,1,1.83-15.657v-.028C153.08,74.814,150.813,74.87,150.441,76.954Z" fill="#36ab7e" opacity="0.31"/>
        <path id="Контур_39" data-name="Контур 39" d="M147.916,63.907c-.588,2.549-1.251,7.224.47,8.936,0,0-.743,2.112-5.484,2.112-5.211,0-2.441-2.112-2.441-2.112,2.869-.677,2.869-2.789,2.441-4.769Z" fill="#e4897b"/>
        <path id="Контур_40" data-name="Контур 40" d="M142.77,74.945l-1.411,1.5.691,1.449,1.124.052.959-1.383Z" fill="#36ab7e"/>
        <path id="Контур_41" data-name="Контур 41" d="M145.874,65.6l-2.968,2.455a8.16,8.16,0,0,1,.2,1.411,3.172,3.172,0,0,0,2.77-3.866Z" fill="#ce6f64"/>
        <path id="Контур_42" data-name="Контур 42" d="M141.731,55.263c-1.783.607-3.208,5.333-1.129,6.584S145.117,54.11,141.731,55.263Z" fill="#263238"/>
        <path id="Контур_43" data-name="Контур 43" d="M149.03,61.236c-1.063,3.292-1.514,5.282-3.659,6.632a4.51,4.51,0,0,1-6.947-3.941c.042-3.165,1.773-8.038,5.418-8.649a4.567,4.567,0,0,1,5.188,5.959Z" fill="#e4897b"/>
        <path id="Контур_44" data-name="Контур 44" d="M151.664,55.733c-1.063,2.568,1.411.423.771,3.471-.414,1.985-4,6.74-5.38,6.307s-1.369-3.8.4-6.189c1.016-1.369-1.181-2.921-6.114-2.756s-7.915-2.61-1.359-4.647c0,0-2.417,1.411-.983,1.881C141.025,54.557,153.795,50.588,151.664,55.733Z" fill="#263238"/>
        <path id="Контур_45" data-name="Контур 45" d="M150.723,56.909c-.052,0,1.105-.287,1.721-2.352C152.445,54.59,152.243,57.633,150.723,56.909Z" fill="#263238"/>
        <path id="Контур_46" data-name="Контур 46" d="M141.491,52.375c-3.034.941-1.778,2-.522,2.262l2.878-1.129C139.473,54.087,141.491,52.375,141.491,52.375Z" fill="#263238"/>
        <path id="Контур_47" data-name="Контур 47" d="M149.613,65.257a3.443,3.443,0,0,1-2.352.974c-1.162,0-1.411-1.1-.785-2.022.555-.828,1.825-1.825,2.85-1.378A1.434,1.434,0,0,1,149.613,65.257Z" fill="#e4897b"/>
        <path id="Контур_48" data-name="Контур 48" d="M143.673,61.052c-.071.273-.273.47-.47.423s-.268-.3-.2-.569.273-.47.47-.419S143.744,60.779,143.673,61.052Z" fill="#263238"/>
        <path id="Контур_49" data-name="Контур 49" d="M140.569,60.37c-.071.273-.273.47-.47.423s-.268-.292-.2-.564.268-.47.47-.423S140.626,60.1,140.569,60.37Z" fill="#263238"/>
        <path id="Контур_50" data-name="Контур 50" d="M141.519,60.723a10.616,10.616,0,0,1-1.881,2.046,1.608,1.608,0,0,0,1.251.531Z" fill="#de5753"/>
        <path id="Контур_51" data-name="Контур 51" d="M142.037,64.293a2.6,2.6,0,0,1-.578-.066.082.082,0,0,1,.038-.16,2.352,2.352,0,0,0,1.994-.47.083.083,0,0,1,.118.118,2.389,2.389,0,0,1-1.571.579Z" fill="#263238"/>
        <path id="Контур_52" data-name="Контур 52" d="M144.906,60.267a.16.16,0,0,1-.15-.1,1.27,1.27,0,0,0-.894-.757.165.165,0,0,1-.141-.188.169.169,0,0,1,.188-.141,1.59,1.59,0,0,1,1.148.941.16.16,0,0,1-.085.216A.165.165,0,0,1,144.906,60.267Z" fill="#263238"/>
        <path id="Контур_53" data-name="Контур 53" d="M139.52,59.02a.165.165,0,0,1-.1-.038.169.169,0,0,1-.024-.235,1.726,1.726,0,0,1,1.383-.644.165.165,0,0,1,.15.179.16.16,0,0,1-.179.151,1.383,1.383,0,0,0-1.1.527.16.16,0,0,1-.127.061Z" fill="#263238"/>
        <path id="Контур_54" data-name="Контур 54" d="M155.511,76.027c.367.569.673,1.072.983,1.618s.607,1.072.9,1.618c.574,1.086,1.115,2.2,1.608,3.33a34.663,34.663,0,0,1,2.319,7.238l.047.24.024.118.033.2a5.385,5.385,0,0,1,.061.795,6.994,6.994,0,0,1-.141,1.326,11.2,11.2,0,0,1-.687,2.1A22.435,22.435,0,0,1,158.775,98a39.507,39.507,0,0,1-4.647,5.7l-2.046-1.641c1.138-1.985,2.272-4.045,3.222-6.062a23.047,23.047,0,0,0,1.195-2.982,6.707,6.707,0,0,0,.273-1.307,1.957,1.957,0,0,0,0-.437c0-.042,0-.08-.028-.085s0,0,0-.024l-.028-.094-.056-.193a29.854,29.854,0,0,0-1.058-3.057c-.414-1.021-.875-2.036-1.359-3.048s-1.007-2.008-1.543-3.005c-.263-.5-.541-.992-.818-1.482l-.828-1.411Z" fill="#e4897b"/>
        <path id="Контур_55" data-name="Контур 55" d="M144.7,192.831a.941.941,0,0,1-.658-.183.47.47,0,0,1-.1-.442.315.315,0,0,1,.193-.23c.428-.169,1.411.508,1.524.583a.075.075,0,0,1,.033.085.08.08,0,0,1-.061.066,4.467,4.467,0,0,1-.926.122Zm-.409-.72a.31.31,0,0,0-.1,0,.136.136,0,0,0-.089.113.3.3,0,0,0,.056.292c.16.16.616.179,1.242.056a2.793,2.793,0,0,0-1.11-.456Z" fill="#fff"/>
        <path id="Контур_56" data-name="Контур 56" d="M145.606,192.714h-.042c-.348-.207-.865-.941-.785-1.317a.31.31,0,0,1,.3-.249.419.419,0,0,1,.343.113c.353.343.273,1.345.273,1.387a.085.085,0,0,1-.047.066Zm-.47-1.411H145.1a.138.138,0,0,0-.155.118c-.052.249.292.8.593,1.054a1.811,1.811,0,0,0-.226-1.1.249.249,0,0,0-.179-.071Z" fill="#fff"/>
        <path id="Контур_57" data-name="Контур 57" d="M153.287,190.856a.612.612,0,0,1-.254-.047.414.414,0,0,1-.249-.292.24.24,0,0,1,.052-.23c.315-.381,1.966-.268,2.154-.254a.08.08,0,0,1,.075.061.085.085,0,0,1-.038.089A4.393,4.393,0,0,1,153.287,190.856Zm1-.687a2.459,2.459,0,0,0-1.322.221.08.08,0,0,0,0,.085.249.249,0,0,0,.151.183,2.531,2.531,0,0,0,1.6-.47Z" fill="#fff"/>
        <path id="Контур_58" data-name="Контур 58" d="M154.985,190.2h0c-.47,0-1.529-.362-1.608-.738a.32.32,0,0,1,.226-.334c.809-.381,1.434.9,1.463.941a.108.108,0,0,1,0,.085.089.089,0,0,1-.08.047Zm-1.086-.974a.513.513,0,0,0-.23.052c-.1.047-.146.1-.136.146.047.221.809.531,1.307.6C154.688,189.765,154.326,189.224,153.9,189.224Z" fill="#fff"/>
        <path id="Контур_59" data-name="Контур 59" d="M153.014,101.3l-3.452-.607,1.783,4.021s3.165,0,3.024-1.656Z" fill="#e4897b"/>
        <path id="Контур_60" data-name="Контур 60" d="M146.951,102.713l1.632,3.245,2.742-1.246-1.783-4.021Z" fill="#e4897b"/>
        <path id="Контур_61" data-name="Контур 61" d="M156.819,182.795l-5.206,4.9-1.679-1.8,5.959-5.428Z" fill="#36ab7e"/>
        <path id="Контур_62" data-name="Контур 62" d="M156.819,182.795l-5.206,4.9-1.679-1.8,5.959-5.428Z" fill="#fff" opacity="0.6"/>
        <path id="Контур_63" data-name="Контур 63" d="M151.043,187.719h-6.9l-.381-2.427,7.614.381Z" fill="#36ab7e"/>
        <path id="Контур_64" data-name="Контур 64" d="M151.043,187.719h-6.9l-.381-2.427,7.614.381Z" fill="#fff" opacity="0.6"/>
        <path id="Контур_65" data-name="Контур 65" d="M154.608,73.624c3.292.47,6.664,11.908,6.664,11.908l-7.055,3.913a82,82,0,0,1-4.233-9.472C148.551,75.745,151.086,73.107,154.608,73.624Z" fill="#36ab7e"/>
        <path id="Контур_66" data-name="Контур 66" d="M154.608,73.624c3.292.47,6.664,11.908,6.664,11.908l-7.055,3.913a82,82,0,0,1-4.233-9.472C148.551,75.745,151.086,73.107,154.608,73.624Z" fill="#fff" opacity="0.7"/>
        <path id="Контур_67" data-name="Контур 67" d="M142.77,74.945l-1.411,1.5.691,1.449,1.124.052.959-1.383Z" opacity="0.2"/>
        <path id="Контур_68" data-name="Контур 68" d="M142.173,77.636s-2.676,11.085-2.78,13.39a40.372,40.372,0,0,0,1.181,8.583,34.74,34.74,0,0,0,2.267-8.682c.386-4.181.1-10.944.273-13.291Z" fill="#36ab7e"/>
        <path id="Контур_69" data-name="Контур 69" d="M142.173,77.636s-2.676,11.085-2.78,13.39a40.372,40.372,0,0,0,1.181,8.583,34.74,34.74,0,0,0,2.267-8.682c.386-4.181.1-10.944.273-13.291Z" opacity="0.2"/>
        <path id="Контур_70" data-name="Контур 70" d="M142.77,74.945a6.114,6.114,0,0,1,.9,2.874s5.87-2.069,5.592-5.1c0,0-.832-.494-1.359-.894C147.906,71.823,147.709,73.732,142.77,74.945Z" fill="#36ab7e"/>
        <path id="Контур_71" data-name="Контур 71" d="M142.77,74.945a6.114,6.114,0,0,1,.9,2.874s5.87-2.069,5.592-5.1c0,0-.832-.494-1.359-.894C147.906,71.823,147.709,73.732,142.77,74.945Z" fill="#fff" opacity="0.6"/>
        <path id="Контур_72" data-name="Контур 72" d="M142.77,74.945a8.259,8.259,0,0,0-1.148,2.69,4.613,4.613,0,0,1-1.858-4.793,9.918,9.918,0,0,1,1.5-.47A2.3,2.3,0,0,0,142.77,74.945Z" fill="#36ab7e"/>
        <path id="Контур_73" data-name="Контур 73" d="M142.77,74.945a8.259,8.259,0,0,0-1.148,2.69,4.613,4.613,0,0,1-1.858-4.793,9.918,9.918,0,0,1,1.5-.47A2.3,2.3,0,0,0,142.77,74.945Z" fill="#fff" opacity="0.6"/>
      </g>
    </g>
  </g>
</svg>
