<svg xmlns="http://www.w3.org/2000/svg" width="22" height="15.125" viewBox="0 0 22 15.125">
  <g id="credit-card_1_" data-name="credit-card (1)" transform="translate(0 -3.438)">
    <g id="Сгруппировать_20" data-name="Сгруппировать 20">
      <path id="Контур_159" data-name="Контур 159" d="M22,7V5.844a2.406,2.406,0,0,0-2.406-2.406H2.406A2.406,2.406,0,0,0,0,5.844V7a.215.215,0,0,0,.215.215h21.57A.215.215,0,0,0,22,7Z" fill="#5151cb"/>
      <path id="Контур_160" data-name="Контур 160" d="M0,8.809v7.348a2.406,2.406,0,0,0,2.406,2.406H19.594A2.406,2.406,0,0,0,22,16.156V8.809a.215.215,0,0,0-.215-.215H.215A.215.215,0,0,0,0,8.809Zm5.5,5.629a.688.688,0,0,1-.687.688H4.125a.688.688,0,0,1-.687-.687V13.75a.688.688,0,0,1,.688-.687h.688a.688.688,0,0,1,.688.688Z" fill="#5151cb"/>
    </g>
  </g>
</svg>
