<svg id="pie-chart" xmlns="http://www.w3.org/2000/svg" width="20" height="20" viewBox="0 0 20 20">
  <g id="Сгруппировать_26" data-name="Сгруппировать 26">
    <path id="Контур_75" data-name="Контур 75" d="M0,10a9.887,9.887,0,0,0,2.132,6.109l.408.524L5.867,13.3A5.568,5.568,0,0,1,4.727,10,5.291,5.291,0,0,1,8.946,4.83l.469-.1V0L8.757.082A10.1,10.1,0,0,0,0,10ZM8.243,3.8a6.445,6.445,0,0,0-3.87,9.344L2.666,14.848A8.661,8.661,0,0,1,1.172,10,8.943,8.943,0,0,1,8.243,1.353Z" fill="#fff"/>
    <path id="Контур_76" data-name="Контур 76" d="M15.17,11.054A5.291,5.291,0,0,1,10,15.273,5.534,5.534,0,0,1,6.7,14.133L3.368,17.461l.524.408A9.887,9.887,0,0,0,10,20a10.029,10.029,0,0,0,9.917-8.757L20,10.585H15.265Zm3.478.7A8.837,8.837,0,0,1,10,18.828a8.661,8.661,0,0,1-4.849-1.494L6.86,15.626a6.445,6.445,0,0,0,9.344-3.87h2.444Z" fill="#fff"/>
    <path id="Контур_77" data-name="Контур 77" d="M9.415,5.9V7.169A1.758,1.758,0,0,0,10,10.585a.586.586,0,1,1-.586.586H8.243a1.761,1.761,0,0,0,1.172,1.657V14.1h1.172V12.828A1.758,1.758,0,0,0,10,9.413a.586.586,0,1,1,.586-.586h1.172a1.761,1.761,0,0,0-1.172-1.657V5.9Z" fill="#fff"/>
    <path id="Контур_78" data-name="Контур 78" d="M19.918,8.754A10.037,10.037,0,0,0,11.246.082L10.587,0V4.735l.469.1A5.264,5.264,0,0,1,15.17,8.944l.1.469H20ZM16.2,8.241A6.469,6.469,0,0,0,11.759,3.8V1.352a8.8,8.8,0,0,1,6.888,6.888Z" fill="#fff"/>
  </g>
</svg>
