<svg xmlns="http://www.w3.org/2000/svg" width="17.342" height="24" viewBox="0 0 17.342 24">
  <g id="Сгруппировать_63" data-name="Сгруппировать 63" transform="translate(-3.329)">
    <path id="Контур_100" data-name="Контур 100" d="M19.988,12.591a4.331,4.331,0,0,0-2.524-1.485,3.419,3.419,0,0,0,1.89-3.721,3.678,3.678,0,0,0-.527-1.651,3.3,3.3,0,0,0-1.19-1.125,6.551,6.551,0,0,0-1.63-.649,12.859,12.859,0,0,0-2.019-.324V0H11.766V3.534q-.577,0-1.759.029V0H7.785V3.635q-.476.014-1.4.015L3.329,3.635V6h1.6a1.146,1.146,0,0,1,1.284.981v4.14a1.466,1.466,0,0,1,.231.015H6.213v5.8a.77.77,0,0,1-.836.736h-1.6l-.447,2.64H6.214q.274,0,.793.007t.779.007V24h2.222V20.365q.606.015,1.759.015V24h2.221V20.322a17.268,17.268,0,0,0,2.1-.216,8.54,8.54,0,0,0,1.752-.5,4.729,4.729,0,0,0,1.4-.844,3.982,3.982,0,0,0,.931-1.284,5.457,5.457,0,0,0,.468-1.8A4.273,4.273,0,0,0,19.988,12.591ZM10.05,6.158l.57-.007.779-.015q.31-.007.837.036a7.958,7.958,0,0,1,.887.115,4.941,4.941,0,0,1,.793.238,2.15,2.15,0,0,1,.692.4,2,2,0,0,1,.44.606,1.891,1.891,0,0,1,.18.844,2.007,2.007,0,0,1-.13.736,1.386,1.386,0,0,1-.389.555,3.945,3.945,0,0,1-.534.389,2.444,2.444,0,0,1-.7.267q-.425.1-.743.159a6.08,6.08,0,0,1-.793.079q-.476.022-.721.029t-.671,0l-.5-.007V6.158h0Zm6.065,9.822a2.051,2.051,0,0,1-.353.577,2,2,0,0,1-.57.432,4.887,4.887,0,0,1-.685.3,5.514,5.514,0,0,1-.8.2q-.469.087-.823.123t-.844.058q-.49.021-.764.021t-.692-.007l-.534-.007V12.807q.115,0,.685-.014t.93-.014q.361,0,1,.043a8.5,8.5,0,0,1,1.067.129,7.017,7.017,0,0,1,.945.267,2.739,2.739,0,0,1,.829.44,2.165,2.165,0,0,1,.534.664,2.06,2.06,0,0,1,.079,1.659Z" fill="#fff"/>
  </g>
</svg>
