<svg xmlns="http://www.w3.org/2000/svg" width="20" height="17.898" viewBox="0 0 20 17.898">
  <g id="wallet_1_" data-name="wallet (1)" transform="translate(0 -1.051)">
    <path id="Контур_99" data-name="Контур 99" d="M18.029,3.542a2.7,2.7,0,0,0-2.692-2.491H2.7A2.7,2.7,0,0,0,0,3.752v12.5a2.7,2.7,0,0,0,2.7,2.7H17.3a2.7,2.7,0,0,0,2.7-2.7V6.141a2.705,2.705,0,0,0-1.971-2.6ZM2.7,2.313H15.337a1.441,1.441,0,0,1,1.4,1.128H2.7a2.684,2.684,0,0,0-1.439.417V3.752A1.441,1.441,0,0,1,2.7,2.313ZM17.3,17.687H2.7a1.441,1.441,0,0,1-1.439-1.439V6.141A1.441,1.441,0,0,1,2.7,4.7H17.3a1.441,1.441,0,0,1,1.439,1.439v2.2H14.716a2.891,2.891,0,0,0,0,5.782h4.023v2.123A1.441,1.441,0,0,1,17.3,17.687Zm1.439-4.824H14.716a1.629,1.629,0,0,1,0-3.259h4.023Z" fill="#fff"/>
    <circle id="Эллипс_13" data-name="Эллипс 13" cx="0.657" cy="0.657" r="0.657" transform="translate(14.293 10.625)" fill="#fff"/>
  </g>
</svg>
