<svg xmlns="http://www.w3.org/2000/svg" width="15.234" height="20" viewBox="0 0 15.234 20">
  <g id="phone-book" transform="translate(-2.383)">
    <path id="Контур_80" data-name="Контур 80" d="M7.786,8.414,10.272,10.9a2.928,2.928,0,0,0,4.143,0l1.243-1.243L13.172,7.171,12.344,8,10.686,6.342l.829-.829L9.029,3.028,7.786,4.271a2.93,2.93,0,0,0,0,4.143ZM8.615,5.1l.414-.414.829.829-.829.829,3.315,3.315.829-.829L14,9.657l-.414.414a1.757,1.757,0,0,1-2.486,0L8.615,7.585a1.758,1.758,0,0,1,0-2.486Z" fill="#fff"/>
    <path id="Контур_81" data-name="Контур 81" d="M4.141,20H17.617V18.828H16.445V17.656h1.172V0H4.141A1.76,1.76,0,0,0,2.383,1.758V18.242A1.76,1.76,0,0,0,4.141,20Zm12.3-3.516H5.9V1.172H16.445ZM4.141,1.172h.586V16.484H4.141a1.75,1.75,0,0,0-.586.1V1.758A.587.587,0,0,1,4.141,1.172Zm0,16.484H15.273v1.172H4.141a.586.586,0,0,1,0-1.172Z" fill="#fff"/>
    <path id="Контур_82" data-name="Контур 82" d="M8.242,12.93H14.1V14.1H8.242Z" fill="#fff"/>
  </g>
</svg>
