<svg xmlns="http://www.w3.org/2000/svg" width="15.999" height="16" viewBox="0 0 15.999 16">
  <g id="instagram_9_" data-name="instagram (9)" transform="translate(0 0)">
    <path id="Контур_89" data-name="Контур 89" d="M8.157,16H8c-1.254,0-2.413-.029-3.54-.1A4.732,4.732,0,0,1,1.731,14.87,4.378,4.378,0,0,1,.26,12.495,10.525,10.525,0,0,1,.018,9.982C.01,9.4,0,8.705,0,8S.01,6.6.018,6.018A10.526,10.526,0,0,1,.26,3.505,4.378,4.378,0,0,1,1.731,1.13,4.732,4.732,0,0,1,4.458.1C5.585.029,6.744,0,8,0s2.413.029,3.54.1A4.732,4.732,0,0,1,14.269,1.13,4.378,4.378,0,0,1,15.74,3.505a10.525,10.525,0,0,1,.241,2.513C15.989,6.6,16,7.295,16,8V8c0,.7-.01,1.4-.018,1.98a10.52,10.52,0,0,1-.241,2.513,4.378,4.378,0,0,1-1.471,2.375A4.732,4.732,0,0,1,11.541,15.9c-1.079.066-2.188.1-3.384.1ZM8,14.75c1.234,0,2.367-.028,3.467-.1a3.443,3.443,0,0,0,2.014-.754,3.156,3.156,0,0,0,1.05-1.715,9.575,9.575,0,0,0,.2-2.221c.008-.58.016-1.267.018-1.964s-.01-1.384-.018-1.964a9.577,9.577,0,0,0-.2-2.221A3.156,3.156,0,0,0,13.479,2.1a3.444,3.444,0,0,0-2.014-.753c-1.1-.067-2.233-.1-3.464-.1s-2.366.028-3.467.1A3.444,3.444,0,0,0,2.521,2.1a3.156,3.156,0,0,0-1.05,1.715,9.576,9.576,0,0,0-.2,2.221C1.26,6.616,1.252,7.3,1.25,8s.01,1.382.018,1.963a9.575,9.575,0,0,0,.2,2.221A3.156,3.156,0,0,0,2.521,13.9a3.444,3.444,0,0,0,2.014.753C5.635,14.722,6.768,14.753,8,14.75Zm-.03-2.844A3.906,3.906,0,1,1,11.875,8,3.911,3.911,0,0,1,7.968,11.906Zm0-6.563A2.656,2.656,0,1,0,10.625,8,2.659,2.659,0,0,0,7.968,5.344Zm4.344-2.5a.938.938,0,1,0,.938.938A.938.938,0,0,0,12.312,2.844Zm0,0" fill="#bec4df"/>
  </g>
</svg>
