<svg xmlns="http://www.w3.org/2000/svg" width="16" height="11.25" viewBox="0 0 16 11.25">
  <g id="mail_1_" data-name="mail (1)" transform="translate(0 -2.375)">
    <g id="Сгруппировать_32" data-name="Сгруппировать 32">
      <g id="Сгруппировать_31" data-name="Сгруппировать 31">
        <path id="Контур_86" data-name="Контур 86" d="M14.594,2.375H1.406A1.408,1.408,0,0,0,0,3.781v8.438a1.408,1.408,0,0,0,1.406,1.406H14.594A1.408,1.408,0,0,0,16,12.219V3.781A1.408,1.408,0,0,0,14.594,2.375Zm-.2.938-5.4,5.374a1.406,1.406,0,0,1-1.99,0L1.6,3.313ZM.938,12.028V3.973L4.989,8Zm.666.66,4.05-4.024.689.686a2.344,2.344,0,0,0,3.314,0l.69-.687,4.05,4.024Zm13.459-.66L11.011,8l4.051-4.03Z" fill="#bec4df"/>
      </g>
    </g>
  </g>
</svg>
