<svg xmlns="http://www.w3.org/2000/svg" width="15.977" height="16" viewBox="0 0 15.977 16">
  <g id="phone-call_8_" data-name="phone-call (8)" transform="translate(-0.012)">
    <g id="Сгруппировать_30" data-name="Сгруппировать 30">
      <g id="Сгруппировать_29" data-name="Сгруппировать 29">
        <path id="Контур_83" data-name="Контур 83" d="M12.645,9.911A1.574,1.574,0,0,0,11.5,9.388a1.627,1.627,0,0,0-1.155.52L9.282,10.972c-.088-.047-.176-.091-.26-.135-.122-.061-.236-.118-.334-.179A11.6,11.6,0,0,1,5.908,8.125,6.842,6.842,0,0,1,5,6.686c.277-.253.534-.517.783-.77.095-.095.189-.192.284-.287a1.549,1.549,0,0,0,0-2.337l-.922-.922c-.1-.1-.213-.213-.314-.321-.2-.209-.415-.425-.635-.628a1.6,1.6,0,0,0-1.131-.5,1.654,1.654,0,0,0-1.148.5l-.007.007L.758,2.587a2.471,2.471,0,0,0-.733,1.57A5.92,5.92,0,0,0,.458,6.663a14.54,14.54,0,0,0,2.583,4.309,15.891,15.891,0,0,0,5.292,4.143,8.245,8.245,0,0,0,2.972.878c.071,0,.145.007.213.007a2.545,2.545,0,0,0,1.948-.837c0-.007.01-.01.014-.017a7.677,7.677,0,0,1,.591-.611c.145-.138.294-.284.439-.436a1.685,1.685,0,0,0,.51-1.168,1.623,1.623,0,0,0-.52-1.158Zm1.209,3.556s0,0,0,0c-.132.142-.267.27-.412.412a8.879,8.879,0,0,0-.652.675,1.628,1.628,0,0,1-1.27.537c-.051,0-.1,0-.155,0a7.324,7.324,0,0,1-2.634-.79,15,15,0,0,1-4.984-3.9A13.71,13.71,0,0,1,1.316,6.345,4.822,4.822,0,0,1,.937,4.231a1.55,1.55,0,0,1,.466-1L2.555,2.077a.768.768,0,0,1,.513-.24.722.722,0,0,1,.493.236l.01.01c.206.192.4.392.608.6.1.108.213.216.321.328l.922.922a.644.644,0,0,1,0,1.047c-.1.1-.192.2-.29.29-.284.29-.554.561-.848.824-.007.007-.014.01-.017.017a.689.689,0,0,0-.176.767l.01.03a7.4,7.4,0,0,0,1.091,1.78l0,0a12.394,12.394,0,0,0,3,2.729,4.611,4.611,0,0,0,.415.226c.122.061.236.118.334.179.014.007.027.017.041.024a.732.732,0,0,0,.334.084.722.722,0,0,0,.513-.233l1.155-1.155a.764.764,0,0,1,.51-.253.688.688,0,0,1,.486.247l.007.007,1.861,1.861A.668.668,0,0,1,13.854,13.467Z" fill="#bec4df"/>
        <path id="Контур_84" data-name="Контур 84" d="M8.647,3.806a4.346,4.346,0,0,1,3.539,3.539.453.453,0,0,0,.449.378.6.6,0,0,0,.078-.007.456.456,0,0,0,.375-.527A5.255,5.255,0,0,0,8.805,2.908a.458.458,0,0,0-.527.371A.451.451,0,0,0,8.647,3.806Z" fill="#bec4df"/>
        <path id="Контур_85" data-name="Контур 85" d="M15.981,7.058A8.653,8.653,0,0,0,8.93.007a.455.455,0,1,0-.149.9,7.729,7.729,0,0,1,6.3,6.3.453.453,0,0,0,.449.378.6.6,0,0,0,.078-.007A.447.447,0,0,0,15.981,7.058Z" fill="#bec4df"/>
      </g>
    </g>
  </g>
</svg>
